<svg xmlns="http://www.w3.org/2000/svg" xmlns:xlink="http://www.w3.org/1999/xlink" width="2000" zoomAndPan="magnify" viewBox="0 0 1500 1499.999933" height="2000" preserveAspectRatio="xMidYMid meet" version="1.0"><defs><g/><clipPath id="76f6ca0d9f"><path d="M 742 664 L 920 664 L 920 939.410156 L 742 939.410156 Z M 742 664 " clip-rule="nonzero"/></clipPath><clipPath id="637ef0548f"><path d="M 389 446 L 837 446 L 837 939.410156 L 389 939.410156 Z M 389 446 " clip-rule="nonzero"/></clipPath><clipPath id="b8964dbe24"><path d="M 836 528 L 1103 528 L 1103 932 L 836 932 Z M 836 528 " clip-rule="nonzero"/></clipPath><clipPath id="b4a6d3bb69"><path d="M 1039.734375 511.753906 L 1118.816406 556.210938 L 898.605469 947.902344 L 819.527344 903.445312 Z M 1039.734375 511.753906 " clip-rule="nonzero"/></clipPath><clipPath id="cb5b3efd29"><path d="M 1079.273438 533.980469 C 1101.113281 546.257812 1108.863281 573.914062 1096.585938 595.75 L 920.914062 908.222656 C 908.636719 930.0625 880.980469 937.8125 859.144531 925.535156 C 837.308594 913.257812 829.558594 885.601562 841.835938 863.765625 L 1017.507812 551.292969 C 1029.78125 529.457031 1057.4375 521.707031 1079.273438 533.980469 Z M 1079.273438 533.980469 " clip-rule="nonzero"/></clipPath><clipPath id="b2a3cf08e3"><path d="M 0 0 L 267 0 L 267 404 L 0 404 Z M 0 0 " clip-rule="nonzero"/></clipPath><clipPath id="155818e8c7"><path d="M 203.734375 -16.246094 L 282.816406 28.210938 L 62.605469 419.902344 L -16.472656 375.445312 Z M 203.734375 -16.246094 " clip-rule="nonzero"/></clipPath><clipPath id="b1139b88d5"><path d="M 243.273438 5.980469 C 265.113281 18.257812 272.863281 45.914062 260.585938 67.75 L 84.914062 380.222656 C 72.636719 402.0625 44.980469 409.8125 23.144531 397.535156 C 1.308594 385.257812 -6.441406 357.601562 5.835938 335.765625 L 181.507812 23.292969 C 193.78125 1.457031 221.4375 -6.292969 243.273438 5.980469 Z M 243.273438 5.980469 " clip-rule="nonzero"/></clipPath><clipPath id="ecc9e69115"><rect x="0" width="267" y="0" height="404"/></clipPath></defs><g clip-path="url(#76f6ca0d9f)"><path fill="#e7e3dd" d="M 913.714844 871.078125 L 794.59375 664.796875 L 742.074219 755.867188 L 834.820312 916.558594 C 843.203125 931.085938 858.511719 939.355469 874.269531 939.355469 C 881.976562 939.355469 889.800781 937.34375 896.953125 933.207031 C 918.855469 920.582031 926.230469 892.867188 913.714844 871.078125 Z M 913.714844 871.078125 " fill-opacity="1" fill-rule="nonzero"/></g><g clip-path="url(#637ef0548f)"><path fill="#e7e3dd" d="M 830.128906 551.484375 L 779.621094 638.984375 L 726.988281 730.054688 L 645.636719 870.964844 C 621.277344 913.207031 575.796875 939.464844 527.074219 939.464844 C 477.570312 939.464844 433.207031 913.875 408.402344 870.964844 C 383.59375 828.167969 383.59375 776.875 408.402344 733.964844 L 550.765625 487.566406 C 565.515625 461.976562 592 446.667969 621.5 446.667969 C 651 446.667969 677.484375 461.976562 692.347656 487.566406 L 697.488281 496.507812 L 712.238281 521.984375 L 659.605469 613.058594 L 621.5 547.128906 L 487.40625 779.445312 C 475.449219 800.121094 483.382812 818.445312 487.40625 825.375 C 491.425781 832.300781 503.273438 848.394531 527.1875 848.394531 C 543.5 848.394531 558.808594 839.566406 566.855469 825.375 L 674.464844 638.984375 L 727.097656 547.910156 L 751.234375 506.003906 C 763.863281 484.214844 791.6875 476.726562 813.476562 489.355469 C 835.269531 501.871094 842.753906 529.695312 830.128906 551.484375 Z M 830.128906 551.484375 " fill-opacity="1" fill-rule="nonzero"/></g><path fill="#e7e3dd" d="M 808.003906 443.316406 C 832.363281 498.183594 913.601562 464.546875 892.148438 408.453125 C 867.675781 353.695312 786.4375 387.332031 808.003906 443.316406 Z M 808.003906 443.316406 " fill-opacity="1" fill-rule="nonzero"/><g clip-path="url(#b8964dbe24)"><g clip-path="url(#b4a6d3bb69)"><g clip-path="url(#cb5b3efd29)"><g transform="matrix(1, 0, 0, 1, 836, 528)"><g clip-path="url(#ecc9e69115)"><g clip-path="url(#b2a3cf08e3)"><g clip-path="url(#155818e8c7)"><g clip-path="url(#b1139b88d5)"><path fill="#e7e3dd" d="M 203.734375 -16.246094 L 282.816406 28.210938 L 62.605469 419.902344 L -16.472656 375.445312 Z M 203.734375 -16.246094 " fill-opacity="1" fill-rule="nonzero"/></g></g></g></g></g></g></g></g><g fill="#e7e3dd" fill-opacity="1"><g transform="translate(381.18211, 1048.726762)"><g><path d="M 25.84375 0 L 18.96875 0 L 7.875 -19.296875 L 7.71875 -19.296875 C 7.757812 -18.492188 7.796875 -17.6875 7.828125 -16.875 C 7.867188 -16.0625 7.90625 -15.25 7.9375 -14.4375 C 7.96875 -13.625 8.003906 -12.8125 8.046875 -12 L 8.046875 0 L 3.203125 0 L 3.203125 -25.515625 L 10.03125 -25.515625 L 21.109375 -6.40625 L 21.234375 -6.40625 C 21.210938 -7.195312 21.179688 -7.976562 21.140625 -8.75 C 21.109375 -9.53125 21.078125 -10.3125 21.046875 -11.09375 C 21.023438 -11.875 21 -12.65625 20.96875 -13.4375 L 20.96875 -25.515625 L 25.84375 -25.515625 Z M 25.84375 0 "/></g></g></g><g fill="#e7e3dd" fill-opacity="1"><g transform="translate(408.407831, 1048.726762)"><g><path d="M 3.203125 0 L 3.203125 -25.515625 L 8.625 -25.515625 L 8.625 0 Z M 3.203125 0 "/></g></g></g><g fill="#e7e3dd" fill-opacity="1"><g transform="translate(418.413834, 1048.726762)"><g><path d="M 34.546875 -25.515625 L 28.0625 0 L 21.890625 0 L 18.4375 -13.40625 C 18.375 -13.65625 18.28125 -14.039062 18.15625 -14.5625 C 18.039062 -15.09375 17.921875 -15.664062 17.796875 -16.28125 C 17.671875 -16.90625 17.554688 -17.492188 17.453125 -18.046875 C 17.359375 -18.597656 17.289062 -19.039062 17.25 -19.375 C 17.21875 -19.039062 17.148438 -18.597656 17.046875 -18.046875 C 16.953125 -17.503906 16.84375 -16.925781 16.71875 -16.3125 C 16.601562 -15.695312 16.484375 -15.117188 16.359375 -14.578125 C 16.242188 -14.046875 16.15625 -13.640625 16.09375 -13.359375 L 12.65625 0 L 6.515625 0 L 0 -25.515625 L 5.328125 -25.515625 L 8.578125 -11.578125 C 8.671875 -11.160156 8.78125 -10.660156 8.90625 -10.078125 C 9.03125 -9.503906 9.148438 -8.898438 9.265625 -8.265625 C 9.390625 -7.628906 9.5 -7.015625 9.59375 -6.421875 C 9.695312 -5.835938 9.773438 -5.332031 9.828125 -4.90625 C 9.878906 -5.34375 9.953125 -5.851562 10.046875 -6.4375 C 10.140625 -7.03125 10.238281 -7.628906 10.34375 -8.234375 C 10.457031 -8.847656 10.570312 -9.414062 10.6875 -9.9375 C 10.8125 -10.46875 10.921875 -10.894531 11.015625 -11.21875 L 14.71875 -25.515625 L 19.84375 -25.515625 L 23.5625 -11.21875 C 23.632812 -10.90625 23.726562 -10.484375 23.84375 -9.953125 C 23.957031 -9.421875 24.070312 -8.847656 24.1875 -8.234375 C 24.300781 -7.617188 24.40625 -7.015625 24.5 -6.421875 C 24.601562 -5.835938 24.675781 -5.332031 24.71875 -4.90625 C 24.800781 -5.488281 24.914062 -6.191406 25.0625 -7.015625 C 25.207031 -7.847656 25.363281 -8.675781 25.53125 -9.5 C 25.695312 -10.332031 25.847656 -11.023438 25.984375 -11.578125 L 29.21875 -25.515625 Z M 34.546875 -25.515625 "/></g></g></g><g fill="#e7e3dd" fill-opacity="1"><g transform="translate(451.135202, 1048.726762)"><g><path d="M 18.828125 0 L 16.984375 -6.078125 L 7.671875 -6.078125 L 5.828125 0 L 0 0 L 9 -25.609375 L 15.609375 -25.609375 L 24.65625 0 Z M 15.6875 -10.609375 L 13.84375 -16.546875 C 13.71875 -16.941406 13.5625 -17.445312 13.375 -18.0625 C 13.1875 -18.6875 12.992188 -19.320312 12.796875 -19.96875 C 12.609375 -20.613281 12.457031 -21.175781 12.34375 -21.65625 C 12.21875 -21.175781 12.050781 -20.582031 11.84375 -19.875 C 11.644531 -19.175781 11.453125 -18.507812 11.265625 -17.875 C 11.085938 -17.25 10.957031 -16.804688 10.875 -16.546875 L 9.03125 -10.609375 Z M 15.6875 -10.609375 "/></g></g></g><g fill="#e7e3dd" fill-opacity="1"><g transform="translate(473.9644, 1048.726762)"><g/></g></g><g fill="#e7e3dd" fill-opacity="1"><g transform="translate(481.423213, 1048.726762)"><g><path d="M 11.359375 -25.515625 C 14.648438 -25.515625 17.050781 -24.804688 18.5625 -23.390625 C 20.070312 -21.972656 20.828125 -20.023438 20.828125 -17.546875 C 20.828125 -16.429688 20.660156 -15.363281 20.328125 -14.34375 C 19.992188 -13.332031 19.441406 -12.429688 18.671875 -11.640625 C 17.910156 -10.847656 16.894531 -10.222656 15.625 -9.765625 C 14.363281 -9.304688 12.800781 -9.078125 10.9375 -9.078125 L 8.625 -9.078125 L 8.625 0 L 3.203125 0 L 3.203125 -25.515625 Z M 11.078125 -21.078125 L 8.625 -21.078125 L 8.625 -13.5 L 10.40625 -13.5 C 11.414062 -13.5 12.289062 -13.632812 13.03125 -13.90625 C 13.78125 -14.175781 14.359375 -14.59375 14.765625 -15.15625 C 15.171875 -15.726562 15.375 -16.460938 15.375 -17.359375 C 15.375 -18.617188 15.023438 -19.550781 14.328125 -20.15625 C 13.628906 -20.769531 12.546875 -21.078125 11.078125 -21.078125 Z M 11.078125 -21.078125 "/></g></g></g><g fill="#e7e3dd" fill-opacity="1"><g transform="translate(502.036698, 1048.726762)"><g><path d="M 26.359375 -12.796875 C 26.359375 -10.828125 26.113281 -9.035156 25.625 -7.421875 C 25.144531 -5.804688 24.40625 -4.414062 23.40625 -3.25 C 22.414062 -2.09375 21.15625 -1.203125 19.625 -0.578125 C 18.101562 0.0351562 16.300781 0.34375 14.21875 0.34375 C 12.132812 0.34375 10.332031 0.0351562 8.8125 -0.578125 C 7.289062 -1.203125 6.03125 -2.09375 5.03125 -3.25 C 4.039062 -4.414062 3.300781 -5.804688 2.8125 -7.421875 C 2.320312 -9.046875 2.078125 -10.847656 2.078125 -12.828125 C 2.078125 -15.460938 2.507812 -17.757812 3.375 -19.71875 C 4.238281 -21.6875 5.570312 -23.207031 7.375 -24.28125 C 9.175781 -25.363281 11.46875 -25.90625 14.25 -25.90625 C 17.019531 -25.90625 19.296875 -25.363281 21.078125 -24.28125 C 22.867188 -23.207031 24.195312 -21.6875 25.0625 -19.71875 C 25.925781 -17.75 26.359375 -15.441406 26.359375 -12.796875 Z M 7.75 -12.796875 C 7.75 -11.015625 7.972656 -9.476562 8.421875 -8.1875 C 8.867188 -6.90625 9.566406 -5.914062 10.515625 -5.21875 C 11.472656 -4.53125 12.707031 -4.1875 14.21875 -4.1875 C 15.757812 -4.1875 17.003906 -4.53125 17.953125 -5.21875 C 18.910156 -5.914062 19.601562 -6.90625 20.03125 -8.1875 C 20.46875 -9.476562 20.6875 -11.015625 20.6875 -12.796875 C 20.6875 -15.460938 20.1875 -17.5625 19.1875 -19.09375 C 18.1875 -20.632812 16.539062 -21.40625 14.25 -21.40625 C 12.726562 -21.40625 11.488281 -21.054688 10.53125 -20.359375 C 9.570312 -19.671875 8.867188 -18.6875 8.421875 -17.40625 C 7.972656 -16.125 7.75 -14.585938 7.75 -12.796875 Z M 7.75 -12.796875 "/></g></g></g><g fill="#e7e3dd" fill-opacity="1"><g transform="translate(528.651785, 1048.726762)"><g><path d="M 34.546875 -25.515625 L 28.0625 0 L 21.890625 0 L 18.4375 -13.40625 C 18.375 -13.65625 18.28125 -14.039062 18.15625 -14.5625 C 18.039062 -15.09375 17.921875 -15.664062 17.796875 -16.28125 C 17.671875 -16.90625 17.554688 -17.492188 17.453125 -18.046875 C 17.359375 -18.597656 17.289062 -19.039062 17.25 -19.375 C 17.21875 -19.039062 17.148438 -18.597656 17.046875 -18.046875 C 16.953125 -17.503906 16.84375 -16.925781 16.71875 -16.3125 C 16.601562 -15.695312 16.484375 -15.117188 16.359375 -14.578125 C 16.242188 -14.046875 16.15625 -13.640625 16.09375 -13.359375 L 12.65625 0 L 6.515625 0 L 0 -25.515625 L 5.328125 -25.515625 L 8.578125 -11.578125 C 8.671875 -11.160156 8.78125 -10.660156 8.90625 -10.078125 C 9.03125 -9.503906 9.148438 -8.898438 9.265625 -8.265625 C 9.390625 -7.628906 9.5 -7.015625 9.59375 -6.421875 C 9.695312 -5.835938 9.773438 -5.332031 9.828125 -4.90625 C 9.878906 -5.34375 9.953125 -5.851562 10.046875 -6.4375 C 10.140625 -7.03125 10.238281 -7.628906 10.34375 -8.234375 C 10.457031 -8.847656 10.570312 -9.414062 10.6875 -9.9375 C 10.8125 -10.46875 10.921875 -10.894531 11.015625 -11.21875 L 14.71875 -25.515625 L 19.84375 -25.515625 L 23.5625 -11.21875 C 23.632812 -10.90625 23.726562 -10.484375 23.84375 -9.953125 C 23.957031 -9.421875 24.070312 -8.847656 24.1875 -8.234375 C 24.300781 -7.617188 24.40625 -7.015625 24.5 -6.421875 C 24.601562 -5.835938 24.675781 -5.332031 24.71875 -4.90625 C 24.800781 -5.488281 24.914062 -6.191406 25.0625 -7.015625 C 25.207031 -7.847656 25.363281 -8.675781 25.53125 -9.5 C 25.695312 -10.332031 25.847656 -11.023438 25.984375 -11.578125 L 29.21875 -25.515625 Z M 34.546875 -25.515625 "/></g></g></g><g fill="#e7e3dd" fill-opacity="1"><g transform="translate(561.373153, 1048.726762)"><g><path d="M 17.90625 0 L 3.203125 0 L 3.203125 -25.515625 L 17.90625 -25.515625 L 17.90625 -21.078125 L 8.625 -21.078125 L 8.625 -15.484375 L 17.25 -15.484375 L 17.25 -11.046875 L 8.625 -11.046875 L 8.625 -4.46875 L 17.90625 -4.46875 Z M 17.90625 0 "/></g></g></g><g fill="#e7e3dd" fill-opacity="1"><g transform="translate(579.561579, 1048.726762)"><g><path d="M 10.640625 -25.515625 C 12.953125 -25.515625 14.863281 -25.234375 16.375 -24.671875 C 17.882812 -24.109375 19.003906 -23.265625 19.734375 -22.140625 C 20.460938 -21.015625 20.828125 -19.59375 20.828125 -17.875 C 20.828125 -16.707031 20.601562 -15.6875 20.15625 -14.8125 C 19.71875 -13.9375 19.140625 -13.195312 18.421875 -12.59375 C 17.703125 -11.988281 16.925781 -11.492188 16.09375 -11.109375 L 23.59375 0 L 17.59375 0 L 11.5 -9.78125 L 8.625 -9.78125 L 8.625 0 L 3.203125 0 L 3.203125 -25.515625 Z M 10.265625 -21.078125 L 8.625 -21.078125 L 8.625 -14.1875 L 10.359375 -14.1875 C 12.148438 -14.1875 13.429688 -14.484375 14.203125 -15.078125 C 14.984375 -15.679688 15.375 -16.566406 15.375 -17.734375 C 15.375 -18.941406 14.957031 -19.800781 14.125 -20.3125 C 13.289062 -20.820312 12.003906 -21.078125 10.265625 -21.078125 Z M 10.265625 -21.078125 "/></g></g></g><g fill="#e7e3dd" fill-opacity="1"><g transform="translate(601.326545, 1048.726762)"><g/></g></g><g fill="#e7e3dd" fill-opacity="1"><g transform="translate(608.785346, 1048.726762)"><g><path d="M 11.078125 -25.875 C 12.453125 -25.875 13.671875 -25.65625 14.734375 -25.21875 C 15.804688 -24.789062 16.65625 -24.164062 17.28125 -23.34375 C 17.90625 -22.519531 18.21875 -21.515625 18.21875 -20.328125 C 18.21875 -18.691406 17.726562 -17.3125 16.75 -16.1875 C 15.78125 -15.070312 14.570312 -14.097656 13.125 -13.265625 L 18.078125 -8.421875 C 18.566406 -9.222656 18.984375 -10.070312 19.328125 -10.96875 C 19.671875 -11.863281 19.96875 -12.765625 20.21875 -13.671875 L 25.765625 -13.671875 C 25.410156 -12.335938 24.882812 -10.910156 24.1875 -9.390625 C 23.5 -7.878906 22.617188 -6.453125 21.546875 -5.109375 L 26.796875 0 L 20.21875 0 L 18.21875 -1.96875 C 17.53125 -1.488281 16.789062 -1.070312 16 -0.71875 C 15.21875 -0.375 14.378906 -0.113281 13.484375 0.0625 C 12.597656 0.25 11.660156 0.34375 10.671875 0.34375 C 8.742188 0.34375 7.085938 0.0390625 5.703125 -0.5625 C 4.316406 -1.164062 3.257812 -2.007812 2.53125 -3.09375 C 1.800781 -4.1875 1.4375 -5.453125 1.4375 -6.890625 C 1.4375 -8.097656 1.617188 -9.132812 1.984375 -10 C 2.359375 -10.875 2.894531 -11.640625 3.59375 -12.296875 C 4.289062 -12.953125 5.128906 -13.554688 6.109375 -14.109375 C 5.492188 -14.835938 5 -15.515625 4.625 -16.140625 C 4.257812 -16.765625 4 -17.390625 3.84375 -18.015625 C 3.6875 -18.640625 3.609375 -19.296875 3.609375 -19.984375 C 3.609375 -21.191406 3.925781 -22.234375 4.5625 -23.109375 C 5.195312 -23.984375 6.070312 -24.660156 7.1875 -25.140625 C 8.3125 -25.628906 9.609375 -25.875 11.078125 -25.875 Z M 9.21875 -10.9375 C 8.769531 -10.601562 8.378906 -10.253906 8.046875 -9.890625 C 7.722656 -9.535156 7.472656 -9.148438 7.296875 -8.734375 C 7.117188 -8.328125 7.03125 -7.878906 7.03125 -7.390625 C 7.03125 -6.367188 7.410156 -5.566406 8.171875 -4.984375 C 8.941406 -4.410156 9.898438 -4.125 11.046875 -4.125 C 11.816406 -4.125 12.53125 -4.210938 13.1875 -4.390625 C 13.851562 -4.578125 14.457031 -4.84375 15 -5.1875 Z M 11.046875 -21.765625 C 10.453125 -21.765625 9.882812 -21.609375 9.34375 -21.296875 C 8.800781 -20.992188 8.53125 -20.429688 8.53125 -19.609375 C 8.53125 -19.023438 8.679688 -18.457031 8.984375 -17.90625 C 9.285156 -17.351562 9.6875 -16.796875 10.1875 -16.234375 C 11.1875 -16.773438 11.953125 -17.320312 12.484375 -17.875 C 13.023438 -18.425781 13.296875 -19.054688 13.296875 -19.765625 C 13.296875 -20.472656 13.050781 -20.984375 12.5625 -21.296875 C 12.082031 -21.609375 11.578125 -21.765625 11.046875 -21.765625 Z M 11.046875 -21.765625 "/></g></g></g><g fill="#e7e3dd" fill-opacity="1"><g transform="translate(633.760472, 1048.726762)"><g/></g></g><g fill="#e7e3dd" fill-opacity="1"><g transform="translate(641.219273, 1048.726762)"><g><path d="M 18.828125 0 L 16.984375 -6.078125 L 7.671875 -6.078125 L 5.828125 0 L 0 0 L 9 -25.609375 L 15.609375 -25.609375 L 24.65625 0 Z M 15.6875 -10.609375 L 13.84375 -16.546875 C 13.71875 -16.941406 13.5625 -17.445312 13.375 -18.0625 C 13.1875 -18.6875 12.992188 -19.320312 12.796875 -19.96875 C 12.609375 -20.613281 12.457031 -21.175781 12.34375 -21.65625 C 12.21875 -21.175781 12.050781 -20.582031 11.84375 -19.875 C 11.644531 -19.175781 11.453125 -18.507812 11.265625 -17.875 C 11.085938 -17.25 10.957031 -16.804688 10.875 -16.546875 L 9.03125 -10.609375 Z M 15.6875 -10.609375 "/></g></g></g><g fill="#e7e3dd" fill-opacity="1"><g transform="translate(664.048471, 1048.726762)"><g><path d="M 23.96875 -25.515625 L 23.96875 -9 C 23.96875 -7.25 23.582031 -5.664062 22.8125 -4.25 C 22.039062 -2.832031 20.867188 -1.710938 19.296875 -0.890625 C 17.734375 -0.0664062 15.769531 0.34375 13.40625 0.34375 C 10.03125 0.34375 7.457031 -0.515625 5.6875 -2.234375 C 3.914062 -3.953125 3.03125 -6.234375 3.03125 -9.078125 L 3.03125 -25.515625 L 8.421875 -25.515625 L 8.421875 -9.890625 C 8.421875 -7.785156 8.851562 -6.304688 9.71875 -5.453125 C 10.582031 -4.609375 11.859375 -4.1875 13.546875 -4.1875 C 14.722656 -4.1875 15.679688 -4.390625 16.421875 -4.796875 C 17.160156 -5.203125 17.703125 -5.828125 18.046875 -6.671875 C 18.398438 -7.523438 18.578125 -8.609375 18.578125 -9.921875 L 18.578125 -25.515625 Z M 23.96875 -25.515625 "/></g></g></g><g fill="#e7e3dd" fill-opacity="1"><g transform="translate(689.232955, 1048.726762)"><g><path d="M 13.046875 0 L 7.640625 0 L 7.640625 -21.015625 L 0.71875 -21.015625 L 0.71875 -25.515625 L 19.984375 -25.515625 L 19.984375 -21.015625 L 13.046875 -21.015625 Z M 13.046875 0 "/></g></g></g><g fill="#e7e3dd" fill-opacity="1"><g transform="translate(708.101789, 1048.726762)"><g><path d="M 26.359375 -12.796875 C 26.359375 -10.828125 26.113281 -9.035156 25.625 -7.421875 C 25.144531 -5.804688 24.40625 -4.414062 23.40625 -3.25 C 22.414062 -2.09375 21.15625 -1.203125 19.625 -0.578125 C 18.101562 0.0351562 16.300781 0.34375 14.21875 0.34375 C 12.132812 0.34375 10.332031 0.0351562 8.8125 -0.578125 C 7.289062 -1.203125 6.03125 -2.09375 5.03125 -3.25 C 4.039062 -4.414062 3.300781 -5.804688 2.8125 -7.421875 C 2.320312 -9.046875 2.078125 -10.847656 2.078125 -12.828125 C 2.078125 -15.460938 2.507812 -17.757812 3.375 -19.71875 C 4.238281 -21.6875 5.570312 -23.207031 7.375 -24.28125 C 9.175781 -25.363281 11.46875 -25.90625 14.25 -25.90625 C 17.019531 -25.90625 19.296875 -25.363281 21.078125 -24.28125 C 22.867188 -23.207031 24.195312 -21.6875 25.0625 -19.71875 C 25.925781 -17.75 26.359375 -15.441406 26.359375 -12.796875 Z M 7.75 -12.796875 C 7.75 -11.015625 7.972656 -9.476562 8.421875 -8.1875 C 8.867188 -6.90625 9.566406 -5.914062 10.515625 -5.21875 C 11.472656 -4.53125 12.707031 -4.1875 14.21875 -4.1875 C 15.757812 -4.1875 17.003906 -4.53125 17.953125 -5.21875 C 18.910156 -5.914062 19.601562 -6.90625 20.03125 -8.1875 C 20.46875 -9.476562 20.6875 -11.015625 20.6875 -12.796875 C 20.6875 -15.460938 20.1875 -17.5625 19.1875 -19.09375 C 18.1875 -20.632812 16.539062 -21.40625 14.25 -21.40625 C 12.726562 -21.40625 11.488281 -21.054688 10.53125 -20.359375 C 9.570312 -19.671875 8.867188 -18.6875 8.421875 -17.40625 C 7.972656 -16.125 7.75 -14.585938 7.75 -12.796875 Z M 7.75 -12.796875 "/></g></g></g><g fill="#e7e3dd" fill-opacity="1"><g transform="translate(734.716853, 1048.726762)"><g><path d="M 14.015625 0 L 7.875 -20.015625 L 7.71875 -20.015625 C 7.738281 -19.535156 7.773438 -18.816406 7.828125 -17.859375 C 7.878906 -16.898438 7.925781 -15.878906 7.96875 -14.796875 C 8.019531 -13.710938 8.046875 -12.734375 8.046875 -11.859375 L 8.046875 0 L 3.203125 0 L 3.203125 -25.515625 L 10.578125 -25.515625 L 16.609375 -6 L 16.71875 -6 L 23.125 -25.515625 L 30.484375 -25.515625 L 30.484375 0 L 25.4375 0 L 25.4375 -12.078125 C 25.4375 -12.878906 25.453125 -13.800781 25.484375 -14.84375 C 25.515625 -15.894531 25.550781 -16.894531 25.59375 -17.84375 C 25.644531 -18.789062 25.679688 -19.503906 25.703125 -19.984375 L 25.546875 -19.984375 L 18.96875 0 Z M 14.015625 0 "/></g></g></g><g fill="#e7e3dd" fill-opacity="1"><g transform="translate(766.583381, 1048.726762)"><g><path d="M 18.828125 0 L 16.984375 -6.078125 L 7.671875 -6.078125 L 5.828125 0 L 0 0 L 9 -25.609375 L 15.609375 -25.609375 L 24.65625 0 Z M 15.6875 -10.609375 L 13.84375 -16.546875 C 13.71875 -16.941406 13.5625 -17.445312 13.375 -18.0625 C 13.1875 -18.6875 12.992188 -19.320312 12.796875 -19.96875 C 12.609375 -20.613281 12.457031 -21.175781 12.34375 -21.65625 C 12.21875 -21.175781 12.050781 -20.582031 11.84375 -19.875 C 11.644531 -19.175781 11.453125 -18.507812 11.265625 -17.875 C 11.085938 -17.25 10.957031 -16.804688 10.875 -16.546875 L 9.03125 -10.609375 Z M 15.6875 -10.609375 "/></g></g></g><g fill="#e7e3dd" fill-opacity="1"><g transform="translate(789.412557, 1048.726762)"><g><path d="M 13.046875 0 L 7.640625 0 L 7.640625 -21.015625 L 0.71875 -21.015625 L 0.71875 -25.515625 L 19.984375 -25.515625 L 19.984375 -21.015625 L 13.046875 -21.015625 Z M 13.046875 0 "/></g></g></g><g fill="#e7e3dd" fill-opacity="1"><g transform="translate(808.281391, 1048.726762)"><g><path d="M 3.203125 0 L 3.203125 -25.515625 L 8.625 -25.515625 L 8.625 0 Z M 3.203125 0 "/></g></g></g><g fill="#e7e3dd" fill-opacity="1"><g transform="translate(818.287417, 1048.726762)"><g><path d="M 26.359375 -12.796875 C 26.359375 -10.828125 26.113281 -9.035156 25.625 -7.421875 C 25.144531 -5.804688 24.40625 -4.414062 23.40625 -3.25 C 22.414062 -2.09375 21.15625 -1.203125 19.625 -0.578125 C 18.101562 0.0351562 16.300781 0.34375 14.21875 0.34375 C 12.132812 0.34375 10.332031 0.0351562 8.8125 -0.578125 C 7.289062 -1.203125 6.03125 -2.09375 5.03125 -3.25 C 4.039062 -4.414062 3.300781 -5.804688 2.8125 -7.421875 C 2.320312 -9.046875 2.078125 -10.847656 2.078125 -12.828125 C 2.078125 -15.460938 2.507812 -17.757812 3.375 -19.71875 C 4.238281 -21.6875 5.570312 -23.207031 7.375 -24.28125 C 9.175781 -25.363281 11.46875 -25.90625 14.25 -25.90625 C 17.019531 -25.90625 19.296875 -25.363281 21.078125 -24.28125 C 22.867188 -23.207031 24.195312 -21.6875 25.0625 -19.71875 C 25.925781 -17.75 26.359375 -15.441406 26.359375 -12.796875 Z M 7.75 -12.796875 C 7.75 -11.015625 7.972656 -9.476562 8.421875 -8.1875 C 8.867188 -6.90625 9.566406 -5.914062 10.515625 -5.21875 C 11.472656 -4.53125 12.707031 -4.1875 14.21875 -4.1875 C 15.757812 -4.1875 17.003906 -4.53125 17.953125 -5.21875 C 18.910156 -5.914062 19.601562 -6.90625 20.03125 -8.1875 C 20.46875 -9.476562 20.6875 -11.015625 20.6875 -12.796875 C 20.6875 -15.460938 20.1875 -17.5625 19.1875 -19.09375 C 18.1875 -20.632812 16.539062 -21.40625 14.25 -21.40625 C 12.726562 -21.40625 11.488281 -21.054688 10.53125 -20.359375 C 9.570312 -19.671875 8.867188 -18.6875 8.421875 -17.40625 C 7.972656 -16.125 7.75 -14.585938 7.75 -12.796875 Z M 7.75 -12.796875 "/></g></g></g><g fill="#e7e3dd" fill-opacity="1"><g transform="translate(844.902481, 1048.726762)"><g><path d="M 25.84375 0 L 18.96875 0 L 7.875 -19.296875 L 7.71875 -19.296875 C 7.757812 -18.492188 7.796875 -17.6875 7.828125 -16.875 C 7.867188 -16.0625 7.90625 -15.25 7.9375 -14.4375 C 7.96875 -13.625 8.003906 -12.8125 8.046875 -12 L 8.046875 0 L 3.203125 0 L 3.203125 -25.515625 L 10.03125 -25.515625 L 21.109375 -6.40625 L 21.234375 -6.40625 C 21.210938 -7.195312 21.179688 -7.976562 21.140625 -8.75 C 21.109375 -9.53125 21.078125 -10.3125 21.046875 -11.09375 C 21.023438 -11.875 21 -12.65625 20.96875 -13.4375 L 20.96875 -25.515625 L 25.84375 -25.515625 Z M 25.84375 0 "/></g></g></g><g fill="#e7e3dd" fill-opacity="1"><g transform="translate(872.128202, 1048.726762)"><g/></g></g><g fill="#e7e3dd" fill-opacity="1"><g transform="translate(879.587002, 1048.726762)"><g><path d="M 18.265625 -7.078125 C 18.265625 -5.566406 17.894531 -4.253906 17.15625 -3.140625 C 16.425781 -2.023438 15.359375 -1.164062 13.953125 -0.5625 C 12.554688 0.0390625 10.859375 0.34375 8.859375 0.34375 C 7.972656 0.34375 7.109375 0.285156 6.265625 0.171875 C 5.421875 0.0546875 4.613281 -0.113281 3.84375 -0.34375 C 3.070312 -0.570312 2.335938 -0.851562 1.640625 -1.1875 L 1.640625 -6.21875 C 2.847656 -5.675781 4.101562 -5.191406 5.40625 -4.765625 C 6.707031 -4.335938 8 -4.125 9.28125 -4.125 C 10.164062 -4.125 10.878906 -4.238281 11.421875 -4.46875 C 11.960938 -4.695312 12.351562 -5.015625 12.59375 -5.421875 C 12.84375 -5.828125 12.96875 -6.296875 12.96875 -6.828125 C 12.96875 -7.460938 12.75 -8.003906 12.3125 -8.453125 C 11.882812 -8.910156 11.296875 -9.335938 10.546875 -9.734375 C 9.796875 -10.128906 8.953125 -10.554688 8.015625 -11.015625 C 7.421875 -11.285156 6.773438 -11.617188 6.078125 -12.015625 C 5.378906 -12.421875 4.710938 -12.914062 4.078125 -13.5 C 3.453125 -14.082031 2.9375 -14.789062 2.53125 -15.625 C 2.132812 -16.457031 1.9375 -17.457031 1.9375 -18.625 C 1.9375 -20.144531 2.285156 -21.445312 2.984375 -22.53125 C 3.679688 -23.613281 4.675781 -24.441406 5.96875 -25.015625 C 7.269531 -25.585938 8.804688 -25.875 10.578125 -25.875 C 11.898438 -25.875 13.160156 -25.71875 14.359375 -25.40625 C 15.566406 -25.101562 16.828125 -24.660156 18.140625 -24.078125 L 16.40625 -19.875 C 15.226562 -20.351562 14.171875 -20.722656 13.234375 -20.984375 C 12.304688 -21.242188 11.363281 -21.375 10.40625 -21.375 C 9.726562 -21.375 9.148438 -21.265625 8.671875 -21.046875 C 8.191406 -20.835938 7.828125 -20.535156 7.578125 -20.140625 C 7.335938 -19.753906 7.21875 -19.304688 7.21875 -18.796875 C 7.21875 -18.191406 7.394531 -17.679688 7.75 -17.265625 C 8.101562 -16.847656 8.640625 -16.445312 9.359375 -16.0625 C 10.078125 -15.6875 10.972656 -15.238281 12.046875 -14.71875 C 13.347656 -14.101562 14.457031 -13.460938 15.375 -12.796875 C 16.300781 -12.128906 17.015625 -11.34375 17.515625 -10.4375 C 18.015625 -9.539062 18.265625 -8.421875 18.265625 -7.078125 Z M 18.265625 -7.078125 "/></g></g></g><g fill="#e7e3dd" fill-opacity="1"><g transform="translate(897.44395, 1048.726762)"><g><path d="M 26.359375 -12.796875 C 26.359375 -10.828125 26.113281 -9.035156 25.625 -7.421875 C 25.144531 -5.804688 24.40625 -4.414062 23.40625 -3.25 C 22.414062 -2.09375 21.15625 -1.203125 19.625 -0.578125 C 18.101562 0.0351562 16.300781 0.34375 14.21875 0.34375 C 12.132812 0.34375 10.332031 0.0351562 8.8125 -0.578125 C 7.289062 -1.203125 6.03125 -2.09375 5.03125 -3.25 C 4.039062 -4.414062 3.300781 -5.804688 2.8125 -7.421875 C 2.320312 -9.046875 2.078125 -10.847656 2.078125 -12.828125 C 2.078125 -15.460938 2.507812 -17.757812 3.375 -19.71875 C 4.238281 -21.6875 5.570312 -23.207031 7.375 -24.28125 C 9.175781 -25.363281 11.46875 -25.90625 14.25 -25.90625 C 17.019531 -25.90625 19.296875 -25.363281 21.078125 -24.28125 C 22.867188 -23.207031 24.195312 -21.6875 25.0625 -19.71875 C 25.925781 -17.75 26.359375 -15.441406 26.359375 -12.796875 Z M 7.75 -12.796875 C 7.75 -11.015625 7.972656 -9.476562 8.421875 -8.1875 C 8.867188 -6.90625 9.566406 -5.914062 10.515625 -5.21875 C 11.472656 -4.53125 12.707031 -4.1875 14.21875 -4.1875 C 15.757812 -4.1875 17.003906 -4.53125 17.953125 -5.21875 C 18.910156 -5.914062 19.601562 -6.90625 20.03125 -8.1875 C 20.46875 -9.476562 20.6875 -11.015625 20.6875 -12.796875 C 20.6875 -15.460938 20.1875 -17.5625 19.1875 -19.09375 C 18.1875 -20.632812 16.539062 -21.40625 14.25 -21.40625 C 12.726562 -21.40625 11.488281 -21.054688 10.53125 -20.359375 C 9.570312 -19.671875 8.867188 -18.6875 8.421875 -17.40625 C 7.972656 -16.125 7.75 -14.585938 7.75 -12.796875 Z M 7.75 -12.796875 "/></g></g></g><g fill="#e7e3dd" fill-opacity="1"><g transform="translate(924.059013, 1048.726762)"><g><path d="M 3.203125 0 L 3.203125 -25.515625 L 8.625 -25.515625 L 8.625 -4.46875 L 18.96875 -4.46875 L 18.96875 0 Z M 3.203125 0 "/></g></g></g><g fill="#e7e3dd" fill-opacity="1"><g transform="translate(942.421927, 1048.726762)"><g><path d="M 23.96875 -25.515625 L 23.96875 -9 C 23.96875 -7.25 23.582031 -5.664062 22.8125 -4.25 C 22.039062 -2.832031 20.867188 -1.710938 19.296875 -0.890625 C 17.734375 -0.0664062 15.769531 0.34375 13.40625 0.34375 C 10.03125 0.34375 7.457031 -0.515625 5.6875 -2.234375 C 3.914062 -3.953125 3.03125 -6.234375 3.03125 -9.078125 L 3.03125 -25.515625 L 8.421875 -25.515625 L 8.421875 -9.890625 C 8.421875 -7.785156 8.851562 -6.304688 9.71875 -5.453125 C 10.582031 -4.609375 11.859375 -4.1875 13.546875 -4.1875 C 14.722656 -4.1875 15.679688 -4.390625 16.421875 -4.796875 C 17.160156 -5.203125 17.703125 -5.828125 18.046875 -6.671875 C 18.398438 -7.523438 18.578125 -8.609375 18.578125 -9.921875 L 18.578125 -25.515625 Z M 23.96875 -25.515625 "/></g></g></g><g fill="#e7e3dd" fill-opacity="1"><g transform="translate(967.606389, 1048.726762)"><g><path d="M 13.046875 0 L 7.640625 0 L 7.640625 -21.015625 L 0.71875 -21.015625 L 0.71875 -25.515625 L 19.984375 -25.515625 L 19.984375 -21.015625 L 13.046875 -21.015625 Z M 13.046875 0 "/></g></g></g><g fill="#e7e3dd" fill-opacity="1"><g transform="translate(986.475222, 1048.726762)"><g><path d="M 3.203125 0 L 3.203125 -25.515625 L 8.625 -25.515625 L 8.625 0 Z M 3.203125 0 "/></g></g></g><g fill="#e7e3dd" fill-opacity="1"><g transform="translate(996.481249, 1048.726762)"><g><path d="M 26.359375 -12.796875 C 26.359375 -10.828125 26.113281 -9.035156 25.625 -7.421875 C 25.144531 -5.804688 24.40625 -4.414062 23.40625 -3.25 C 22.414062 -2.09375 21.15625 -1.203125 19.625 -0.578125 C 18.101562 0.0351562 16.300781 0.34375 14.21875 0.34375 C 12.132812 0.34375 10.332031 0.0351562 8.8125 -0.578125 C 7.289062 -1.203125 6.03125 -2.09375 5.03125 -3.25 C 4.039062 -4.414062 3.300781 -5.804688 2.8125 -7.421875 C 2.320312 -9.046875 2.078125 -10.847656 2.078125 -12.828125 C 2.078125 -15.460938 2.507812 -17.757812 3.375 -19.71875 C 4.238281 -21.6875 5.570312 -23.207031 7.375 -24.28125 C 9.175781 -25.363281 11.46875 -25.90625 14.25 -25.90625 C 17.019531 -25.90625 19.296875 -25.363281 21.078125 -24.28125 C 22.867188 -23.207031 24.195312 -21.6875 25.0625 -19.71875 C 25.925781 -17.75 26.359375 -15.441406 26.359375 -12.796875 Z M 7.75 -12.796875 C 7.75 -11.015625 7.972656 -9.476562 8.421875 -8.1875 C 8.867188 -6.90625 9.566406 -5.914062 10.515625 -5.21875 C 11.472656 -4.53125 12.707031 -4.1875 14.21875 -4.1875 C 15.757812 -4.1875 17.003906 -4.53125 17.953125 -5.21875 C 18.910156 -5.914062 19.601562 -6.90625 20.03125 -8.1875 C 20.46875 -9.476562 20.6875 -11.015625 20.6875 -12.796875 C 20.6875 -15.460938 20.1875 -17.5625 19.1875 -19.09375 C 18.1875 -20.632812 16.539062 -21.40625 14.25 -21.40625 C 12.726562 -21.40625 11.488281 -21.054688 10.53125 -20.359375 C 9.570312 -19.671875 8.867188 -18.6875 8.421875 -17.40625 C 7.972656 -16.125 7.75 -14.585938 7.75 -12.796875 Z M 7.75 -12.796875 "/></g></g></g><g fill="#e7e3dd" fill-opacity="1"><g transform="translate(1023.096313, 1048.726762)"><g><path d="M 25.84375 0 L 18.96875 0 L 7.875 -19.296875 L 7.71875 -19.296875 C 7.757812 -18.492188 7.796875 -17.6875 7.828125 -16.875 C 7.867188 -16.0625 7.90625 -15.25 7.9375 -14.4375 C 7.96875 -13.625 8.003906 -12.8125 8.046875 -12 L 8.046875 0 L 3.203125 0 L 3.203125 -25.515625 L 10.03125 -25.515625 L 21.109375 -6.40625 L 21.234375 -6.40625 C 21.210938 -7.195312 21.179688 -7.976562 21.140625 -8.75 C 21.109375 -9.53125 21.078125 -10.3125 21.046875 -11.09375 C 21.023438 -11.875 21 -12.65625 20.96875 -13.4375 L 20.96875 -25.515625 L 25.84375 -25.515625 Z M 25.84375 0 "/></g></g></g><g fill="#e7e3dd" fill-opacity="1"><g transform="translate(1050.322033, 1048.726762)"><g><path d="M 18.265625 -7.078125 C 18.265625 -5.566406 17.894531 -4.253906 17.15625 -3.140625 C 16.425781 -2.023438 15.359375 -1.164062 13.953125 -0.5625 C 12.554688 0.0390625 10.859375 0.34375 8.859375 0.34375 C 7.972656 0.34375 7.109375 0.285156 6.265625 0.171875 C 5.421875 0.0546875 4.613281 -0.113281 3.84375 -0.34375 C 3.070312 -0.570312 2.335938 -0.851562 1.640625 -1.1875 L 1.640625 -6.21875 C 2.847656 -5.675781 4.101562 -5.191406 5.40625 -4.765625 C 6.707031 -4.335938 8 -4.125 9.28125 -4.125 C 10.164062 -4.125 10.878906 -4.238281 11.421875 -4.46875 C 11.960938 -4.695312 12.351562 -5.015625 12.59375 -5.421875 C 12.84375 -5.828125 12.96875 -6.296875 12.96875 -6.828125 C 12.96875 -7.460938 12.75 -8.003906 12.3125 -8.453125 C 11.882812 -8.910156 11.296875 -9.335938 10.546875 -9.734375 C 9.796875 -10.128906 8.953125 -10.554688 8.015625 -11.015625 C 7.421875 -11.285156 6.773438 -11.617188 6.078125 -12.015625 C 5.378906 -12.421875 4.710938 -12.914062 4.078125 -13.5 C 3.453125 -14.082031 2.9375 -14.789062 2.53125 -15.625 C 2.132812 -16.457031 1.9375 -17.457031 1.9375 -18.625 C 1.9375 -20.144531 2.285156 -21.445312 2.984375 -22.53125 C 3.679688 -23.613281 4.675781 -24.441406 5.96875 -25.015625 C 7.269531 -25.585938 8.804688 -25.875 10.578125 -25.875 C 11.898438 -25.875 13.160156 -25.71875 14.359375 -25.40625 C 15.566406 -25.101562 16.828125 -24.660156 18.140625 -24.078125 L 16.40625 -19.875 C 15.226562 -20.351562 14.171875 -20.722656 13.234375 -20.984375 C 12.304688 -21.242188 11.363281 -21.375 10.40625 -21.375 C 9.726562 -21.375 9.148438 -21.265625 8.671875 -21.046875 C 8.191406 -20.835938 7.828125 -20.535156 7.578125 -20.140625 C 7.335938 -19.753906 7.21875 -19.304688 7.21875 -18.796875 C 7.21875 -18.191406 7.394531 -17.679688 7.75 -17.265625 C 8.101562 -16.847656 8.640625 -16.445312 9.359375 -16.0625 C 10.078125 -15.6875 10.972656 -15.238281 12.046875 -14.71875 C 13.347656 -14.101562 14.457031 -13.460938 15.375 -12.796875 C 16.300781 -12.128906 17.015625 -11.34375 17.515625 -10.4375 C 18.015625 -9.539062 18.265625 -8.421875 18.265625 -7.078125 Z M 18.265625 -7.078125 "/></g></g></g></svg>